<?xml version="1.0" encoding="UTF-8" standalone="no"?>
<!-- Created with Inkscape (http://www.inkscape.org/) -->

<svg
   xmlns:dc="http://purl.org/dc/elements/1.1/"
   xmlns:cc="http://creativecommons.org/ns#"
   xmlns:rdf="http://www.w3.org/1999/02/22-rdf-syntax-ns#"
   xmlns:svg="http://www.w3.org/2000/svg"
   xmlns="http://www.w3.org/2000/svg"
   xmlns:sodipodi="http://sodipodi.sourceforge.net/DTD/sodipodi-0.dtd"
   xmlns:inkscape="http://www.inkscape.org/namespaces/inkscape"
   width="213.71295"
   height="77.016365"
   viewBox="0 0 213.71295 77.016365"
   id="svg2"
   version="1.1"
   inkscape:version="0.48.5 r10040"
   sodipodi:docname="header.svg">
  <defs
     id="defs4" />
  <sodipodi:namedview
     id="base"
     pagecolor="#ffffff"
     bordercolor="#666666"
     borderopacity="1.0"
     inkscape:pageopacity="0.0"
     inkscape:pageshadow="2"
     inkscape:zoom="1.4730176"
     inkscape:cx="23.384465"
     inkscape:cy="20.742861"
     inkscape:document-units="px"
     inkscape:current-layer="layer1"
     showgrid="false"
     inkscape:window-width="1024"
     inkscape:window-height="715"
     inkscape:window-x="0"
     inkscape:window-y="32"
     inkscape:window-maximized="1"
     fit-margin-top="0"
     fit-margin-left="0"
     fit-margin-right="0"
     fit-margin-bottom="0" />
  <metadata
     id="metadata7">
    <rdf:RDF>
      <cc:Work
         rdf:about="">
        <dc:format>image/svg+xml</dc:format>
        <dc:type
           rdf:resource="http://purl.org/dc/dcmitype/StillImage" />
        <dc:title />
        <cc:license
           rdf:resource="http://creativecommons.org/licenses/by/3.0/" />
      </cc:Work>
      <cc:License
         rdf:about="http://creativecommons.org/licenses/by/3.0/">
        <cc:permits
           rdf:resource="http://creativecommons.org/ns#Reproduction" />
        <cc:permits
           rdf:resource="http://creativecommons.org/ns#Distribution" />
        <cc:requires
           rdf:resource="http://creativecommons.org/ns#Notice" />
        <cc:requires
           rdf:resource="http://creativecommons.org/ns#Attribution" />
        <cc:permits
           rdf:resource="http://creativecommons.org/ns#DerivativeWorks" />
      </cc:License>
    </rdf:RDF>
  </metadata>
  <g
     inkscape:label="Layer 1"
     inkscape:groupmode="layer"
     id="layer1"
     transform="translate(-288.92681,-125.22265)">
    <g
       id="g4308"
       transform="matrix(0.43374227,0,0,0.43374227,267.40235,35.87174)">
      <path
         inkscape:connector-curvature="0"
         id="path3491"
         d="m 98.437383,296.09156 2.036637,84.85981 99.11626,-4.07327 109.97832,1.35775 63.81458,2.71552 116.08822,-3.39439 -1.35776,-62.45683 51.59477,-1.35775 -2.71552,-46.84262 -5.43102,-38.69607 -114.05159,-4.07328 -99.79514,-6.1099 -120.84037,-9.5043 -99.795144,2.71551 -44.805981,0.67888 5.431028,90.29084 z"
         style="fill:#cccccc;fill-rule:evenodd;stroke:#800000;stroke-width:5;stroke-linecap:butt;stroke-linejoin:miter;stroke-miterlimit:4;stroke-opacity:1;stroke-dasharray:none" />
      <path
         inkscape:connector-curvature="0"
         id="path3342"
         d="m 138.44439,232.88115 0,53.12356 9.02018,-0.68107 -3.00673,-37.45892 6.01346,-8.17285 11.52578,0.68107 8.01795,5.44857 2.5056,-8.85393 -12.02691,-6.12963 -11.52579,1.36214 -5.51233,4.76749 0.50112,-10.21606 z"
         style="fill:#800000;fill-rule:evenodd;stroke:#800000;stroke-width:0.86054897px;stroke-linecap:butt;stroke-linejoin:miter;stroke-opacity:1" />
      <path
         inkscape:connector-curvature="0"
         id="path3344"
         d="m 178.27085,242.10223 -0.9583,9.01322 8.62472,0 0.47915,29.16037 -13.41623,1.06038 -0.47915,7.42265 28.74906,-1.06039 0.95831,-9.0132 -11.49963,1.06037 -0.47915,-36.58302 z"
         style="fill:#800000;fill-rule:evenodd;stroke:#800000;stroke-width:0.74243665px;stroke-linecap:butt;stroke-linejoin:miter;stroke-opacity:1" />
      <path
         sodipodi:nodetypes="cccccccccccccccccc"
         inkscape:connector-curvature="0"
         id="path3346"
         d="m 212.48896,222.0938 0,12.21981 -14.93533,-0.67888 -2.03663,10.86206 14.93532,-0.67888 -1.35775,23.76075 4.07327,16.97196 11.04523,3.39439 12.21982,-2.03663 0,-9.5043 -9.68748,2.03663 -10.18318,-10.18317 0.67888,-21.72412 14.93533,-0.67888 0.67888,-12.89869 -10.86206,0 -0.67888,-12.89869 z"
         style="fill:#800000;fill-rule:evenodd;stroke:#800000;stroke-width:1px;stroke-linecap:butt;stroke-linejoin:miter;stroke-opacity:1" />
      <path
         inkscape:connector-curvature="0"
         id="path3348"
         d="m 253.22168,260.78988 25.11851,0.67887 1.35776,-10.18317 -15.61421,-15.61421 -19.68748,0.67888 -6.78878,16.29308 -0.67888,18.32972 14.25645,16.97197 25.1185,-0.67888 0,-10.86206 -19.00859,0.67888 -10.18318,-7.46766 z"
         style="fill:#800000;fill-rule:evenodd;stroke:#800000;stroke-width:1px;stroke-linecap:butt;stroke-linejoin:miter;stroke-opacity:1" />
      <path
         inkscape:connector-curvature="0"
         id="path3352"
         d="m 354.48056,245.43126 0.4678,-8.69713 -14.50176,-3.58118 -14.50176,3.06959 -5.14579,10.23192 7.01698,13.3015 17.30856,7.67395 3.27459,10.74352 -5.14579,5.62756 -12.63057,2.04638 -10.29157,-4.09276 -0.9356,7.16234 14.96956,3.58117 16.84076,-4.09276 5.61359,-10.23193 -7.01698,-14.8363 -17.30856,-8.69713 -1.8712,-10.23192 11.22718,-4.60437 z"
         style="fill:#800000;fill-rule:evenodd;stroke:#800000;stroke-width:0.72061145px;stroke-linecap:butt;stroke-linejoin:miter;stroke-opacity:1" />
      <path
         inkscape:connector-curvature="0"
         id="path3354"
         d="m 476.57271,243.81791 0.67887,18.32972 1.35776,24.43963 0.67888,16.29308 9.5043,2.71552 -3.39439,-39.37496 10.18317,-7.46766 18.32972,3.39439 0,19.68748 0.67888,21.72411 9.5043,-0.67888 -1.35776,-28.5129 -2.71551,-16.29308 -19.68748,-8.82542 -14.25644,0.67888 -2.03664,-10.18318 z"
         style="fill:#800000;fill-rule:evenodd;stroke:#800000;stroke-width:1px;stroke-linecap:butt;stroke-linejoin:miter;stroke-opacity:1" />
      <path
         inkscape:connector-curvature="0"
         id="path3356"
         d="m 110.37027,296.38484 7.70513,-0.51368 0,28.25216 13.35557,-0.51367 -2.56838,-27.22481 7.70513,0 1.02736,29.79318 -1.02736,10.27351 2.05471,28.76584 -9.24617,-0.51368 0,-32.36156 -10.78718,-1.02735 1.02735,34.92994 -8.21881,-1.02735 -1.02735,-34.41626 -0.51368,-15.92395 z"
         style="fill:#800000;fill-rule:evenodd;stroke:#800000;stroke-width:0.75665325px;stroke-linecap:butt;stroke-linejoin:miter;stroke-opacity:1" />
      <path
         inkscape:connector-curvature="0"
         id="path3358"
         d="m 147.96183,306.9245 -0.67982,10.15153 16.31542,-1.79145 8.83752,8.36008 -1.35961,7.76294 -19.71447,0.59715 -4.75867,13.73443 4.07886,17.91447 21.75389,1.79145 12.23658,-9.55439 3.39904,10.15154 10.19715,0 -9.51734,-17.91448 -8.15771,-19.70591 -6.79809,-17.31733 -12.23657,-3.58289 z"
         style="fill:#800000;fill-rule:evenodd;stroke:#800000;stroke-width:0.93851852px;stroke-linecap:butt;stroke-linejoin:miter;stroke-opacity:1" />
      <path
         inkscape:connector-curvature="0"
         id="path3379"
         d="m 202.51654,366.68612 -1.66965,-57.13766 8.90475,1.61711 0,12.93682 9.46128,-7.00745 13.91366,-1.07807 6.67855,10.24166 6.12201,-9.70262 20.03567,0 5.0089,8.62455 -2.22617,42.58373 -10.01784,1.07807 2.78274,-35.03724 -3.89583,-9.70263 -9.46128,4.85132 -3.33928,12.39779 -12.24402,0.53903 -2.22618,-14.01489 -11.13093,-0.53903 -8.34818,8.62455 -0.55655,14.01489 0,16.71007 z"
         style="fill:#800000;fill-rule:evenodd;stroke:#800000;stroke-width:0.80680174px;stroke-linecap:butt;stroke-linejoin:miter;stroke-opacity:1" />
      <path
         inkscape:connector-curvature="0"
         id="path3381"
         d="m 404.61159,313.06352 -15.61421,0 -15.6142,14.93533 0.67887,30.54953 12.8987,12.21981 21.72411,0 14.93533,-12.21981 0,-31.90729 -16.97197,-12.89869 z"
         style="fill:#800000;fill-rule:evenodd;stroke:#800000;stroke-width:1px;stroke-linecap:butt;stroke-linejoin:miter;stroke-opacity:1" />
      <path
         inkscape:connector-curvature="0"
         id="path3342-8"
         d="m 284.34395,238.33343 0,53.12356 9.02018,-0.68107 -3.00673,-37.45892 6.01346,-8.17285 11.52578,0.68107 8.01795,5.44857 2.5056,-8.85393 -12.02691,-6.12963 -11.52579,1.36214 -5.51233,4.76749 0.50112,-10.21606 z"
         style="fill:#800000;fill-rule:evenodd;stroke:#800000;stroke-width:0.86054897px;stroke-linecap:butt;stroke-linejoin:miter;stroke-opacity:1" />
      <path
         inkscape:connector-curvature="0"
         id="path3417"
         d="m 65.586136,222.91488 4.397142,19.54285 4.885713,22.96285 4.885713,20.52 11.725711,0 4.397142,-13.19142 4.885713,-12.70286 5.86286,13.67999 4.8857,13.68 13.68,0 3.42,-20.03142 2.93143,-21.49714 5.86285,-22.47428 -12.70285,-0.97714 -2.93143,24.42857 -4.88571,27.84856 -6.35142,-14.16857 -5.86286,-9.77143 -11.237139,0.97715 -4.397142,11.23714 -3.90857,8.79428 -7.817141,-29.31428 -4.397143,-20.52 z"
         style="fill:#800000;fill-rule:evenodd;stroke:#800000;stroke-width:0.71967417px;stroke-linecap:butt;stroke-linejoin:miter;stroke-opacity:1" />
      <path
         inkscape:connector-curvature="0"
         id="path3419"
         d="m 391.71289,295.41268 -0.67887,-33.26505 -4.75215,-27.83402 14.25645,-0.67888 23.76074,21.04524 0.67888,23.08187 -16.97196,19.00859 z"
         style="fill:#800000;fill-rule:evenodd;stroke:#800000;stroke-width:1px;stroke-linecap:butt;stroke-linejoin:miter;stroke-opacity:1" />
      <path
         inkscape:connector-curvature="0"
         id="path3348-2"
         d="m 445.67299,271.31292 25.11851,0.67887 1.35776,-10.18317 -15.61421,-15.61421 -19.68748,0.67888 -6.78878,16.29308 -0.67888,18.32972 14.25645,16.97197 25.1185,-0.67888 0,-10.86206 -19.00859,0.67888 -10.18318,-7.46766 z"
         style="fill:#800000;fill-rule:evenodd;stroke:#800000;stroke-width:1px;stroke-linecap:butt;stroke-linejoin:miter;stroke-opacity:1" />
      <path
         inkscape:connector-curvature="0"
         id="path3344-1"
         d="m 282.12494,321.12507 -0.9583,9.01322 8.62472,0 0.47915,29.16037 -13.41623,1.06038 -0.47915,7.42265 28.74906,-1.06039 0.95831,-9.0132 -11.49963,1.06037 -0.47915,-36.58302 z"
         style="fill:#800000;fill-rule:evenodd;stroke:#800000;stroke-width:0.74243665px;stroke-linecap:butt;stroke-linejoin:miter;stroke-opacity:1" />
      <path
         sodipodi:nodetypes="ccccc"
         inkscape:connector-curvature="0"
         id="path3350-8"
         d="m 284.8996,314.96036 11.1242,-0.52973 2.1189,-6.35668 -13.93734,-0.76113 z"
         style="fill:#800000;fill-rule:evenodd;stroke:#800000;stroke-width:0.78029245px;stroke-linecap:butt;stroke-linejoin:miter;stroke-opacity:1" />
      <path
         sodipodi:nodetypes="cccccccccccccc"
         inkscape:connector-curvature="0"
         id="path3459"
         d="m 302.10093,294.7338 -2.71551,8.14654 5.43103,0 8.14654,-0.67888 -0.67888,29.19178 -0.67888,27.15514 6.10991,10.86205 14.93532,0 0,-8.14654 -11.54093,0 -2.03664,-9.5043 0.67889,-37.33832 1.35775,-20.36635 z"
         style="fill:#800000;fill-rule:evenodd;stroke:#800000;stroke-width:1px;stroke-linecap:butt;stroke-linejoin:miter;stroke-opacity:1" />
      <path
         inkscape:connector-curvature="0"
         id="path3354-8"
         d="m 431.08207,310.72952 0.67887,18.32972 1.35776,24.43963 0.67888,16.29308 9.5043,2.71552 -3.39439,-39.37496 10.18317,-7.46766 18.32972,3.39439 0,19.68748 0.67888,21.72411 9.5043,-0.67888 -1.35776,-28.5129 -2.71551,-16.29308 -19.68748,-8.82542 -14.25644,0.67888 -2.03664,-10.18318 z"
         style="fill:#800000;fill-rule:evenodd;stroke:#800000;stroke-width:1px;stroke-linecap:butt;stroke-linejoin:miter;stroke-opacity:1" />
      <path
         sodipodi:nodetypes="cccccccccccccccccc"
         inkscape:connector-curvature="0"
         id="path3346-1"
         d="m 342.79592,306.32902 0,12.21981 -14.93533,-0.67888 -2.03663,10.86206 14.93532,-0.67888 -1.35775,23.76075 4.07327,16.97196 11.04523,3.39439 12.21982,-2.03663 0,-9.5043 -9.68748,2.03663 -10.18318,-10.18317 0.67888,-21.72412 14.93533,-0.67888 0.67888,-12.89869 -10.86206,0 -0.67888,-12.89869 z"
         style="fill:#800000;fill-rule:evenodd;stroke:#800000;stroke-width:1px;stroke-linecap:butt;stroke-linejoin:miter;stroke-opacity:1" />
      <path
         inkscape:connector-curvature="0"
         id="path3383"
         d="m 403.49797,326.88443 -16.40233,-2.06765 -4.31639,9.30444 -1.72656,19.64272 12.9492,9.30444 15.53904,-8.27062 7.76952,-12.40592 -1.72655,-16.54124 z"
         style="fill:#cccccc;fill-rule:evenodd;stroke:#cccccc;stroke-width:1.39157867px;stroke-linecap:butt;stroke-linejoin:miter;stroke-opacity:1" />
      <path
         inkscape:connector-curvature="0"
         id="path3383-4"
         d="m 170.40026,339.45566 -12.91638,-1.1943 -3.39904,5.37435 -1.35962,11.34583 10.19714,5.37434 12.23656,-4.77719 6.11829,-7.16579 -1.35962,-9.55439 z"
         style="fill:#cccccc;fill-rule:evenodd;stroke:#cccccc;stroke-width:0.93851852px;stroke-linecap:butt;stroke-linejoin:miter;stroke-opacity:1" />
      <path
         inkscape:connector-curvature="0"
         id="path3400"
         d="m 270.54568,256.37092 -20.03738,2.19198 -2.50468,-7.67191 9.1838,-10.95984 7.51403,1.09597 z"
         style="fill:#cccccc;fill-rule:evenodd;stroke:#cccccc;stroke-width:1.40904641px;stroke-linecap:butt;stroke-linejoin:miter;stroke-opacity:1" />
      <path
         inkscape:connector-curvature="0"
         id="path3421"
         d="m 398.05632,244.27222 2.58484,24.88023 -2.58484,20.09557 11.20097,-1.91385 9.47775,-12.44012 0,-14.35398 -10.33936,-10.52626 z"
         style="fill:#cccccc;fill-rule:evenodd;stroke:#cccccc;stroke-width:1.33753347px;stroke-linecap:butt;stroke-linejoin:miter;stroke-opacity:1" />
      <path
         inkscape:connector-curvature="0"
         id="path3400-1"
         d="m 464.29199,266.32843 -24.1817,2.01785 -3.02272,-7.06246 11.08328,-10.08923 9.06814,1.00892 z"
         style="fill:#cccccc;fill-rule:evenodd;stroke:#cccccc;stroke-width:1.4851656px;stroke-linecap:butt;stroke-linejoin:miter;stroke-opacity:1" />
      <path
         sodipodi:nodetypes="ccccc"
         inkscape:connector-curvature="0"
         id="path3350-8-9"
         d="m 178.32929,235.42521 11.1242,-0.52973 2.1189,-6.35668 -13.93734,-0.76113 z"
         style="fill:#800000;fill-rule:evenodd;stroke:#800000;stroke-width:0.78029245px;stroke-linecap:butt;stroke-linejoin:miter;stroke-opacity:1" />
    </g>
  </g>
</svg>
